<svg xmlns="http://www.w3.org/2000/svg" viewBox="0 0 577.15 432.01"><path fill="#f79413" d="M910.48,431.72V628.55c-.08.51-.89,6.59,5.62,10.64,5.36,3.33,11.75,2.85,12.82,2.75h271.15c.5.06,8.09.86,13.22-3.35a8.75,8.75,0,0,0,3.38-8.7V431.72a9.92,9.92,0,0,0-3-8.27c-5.33-5.44-14.81-5.15-15.48-5.12h-273c-1.31.18-7.52,1.14-11.59,5.42A10.64,10.64,0,0,0,910.48,431.72Z" transform="translate(-774.29 -418.32)"/><path fill="#353030" d="M913.7,433.79V626.48c-.08.5-.88,6.45,5.51,10.41,5.25,3.26,11.51,2.79,12.55,2.7h265.45c.49.06,7.92.84,12.94-3.28a8.56,8.56,0,0,0,3.31-8.52v-194a9.72,9.72,0,0,0-2.91-8.1c-5.22-5.32-14.5-5-15.15-5H928.15c-1.28.18-7.36,1.12-11.35,5.3A10.41,10.41,0,0,0,913.7,433.79Z" transform="translate(-774.29 -418.32)"/><path fill="#f79413" d="M1008.69,604.71h-14.2l4.24-22.13q-2.12.19-4.33.28t-4.52.09h-5.35l-4.24,21.76h-14.2l4.24-21.76H958.07l24.07-120.52h11.62l3.32-17.34h14.2L1008,462.43h8.3q1.57,0,3,0t2.81.14l3.41-17.52h14.2l-3.87,20.1q7.84,2.58,11.76,7.42t3.92,12.4a39.42,39.42,0,0,1-1.66,11.48,33.42,33.42,0,0,1-4.93,10,34,34,0,0,1-8.07,7.88,39,39,0,0,1-11.16,5.3,31.58,31.58,0,0,1,7.65,2.54,22.59,22.59,0,0,1,6.13,4.33,18.76,18.76,0,0,1,4.1,6.22,21.73,21.73,0,0,1,1.48,8.3,34.57,34.57,0,0,1-2.58,13.46,40.31,40.31,0,0,1-7,11.16,47,47,0,0,1-10.1,8.62,52.59,52.59,0,0,1-11.89,5.67Zm18.17-57.26a18.4,18.4,0,0,0,.37-3.78,15.68,15.68,0,0,0-1.38-6.73,12.51,12.51,0,0,0-4.43-5,23,23,0,0,0-7.79-3.18,50.82,50.82,0,0,0-11.39-1.11H985.54l-8.21,41.49h17.43a50.43,50.43,0,0,0,11.76-1.29,30.61,30.61,0,0,0,9.54-4,23.82,23.82,0,0,0,6.92-6.78A26.23,26.23,0,0,0,1026.85,547.45Zm6.46-53.48q.18-1.2.32-2.31a17.9,17.9,0,0,0,.14-2.21,13.19,13.19,0,0,0-1.06-5.3,10,10,0,0,0-3.55-4.2,19,19,0,0,0-6.59-2.72,45.25,45.25,0,0,0-10.19-1H995.69L988.13,514h16.41a42.9,42.9,0,0,0,10.42-1.2,27.08,27.08,0,0,0,8.53-3.69,22.81,22.81,0,0,0,6.27-6.22A23.85,23.85,0,0,0,1033.31,494Z" transform="translate(-774.29 -418.32)"/><path fill="#f79413" d="M1156.92,607.43h-88.56l2.2-11.33h88.64Z" transform="translate(-774.29 -418.32)"/><path fill="#f79413" d="M873.08,771.93V836.5H858.31V771.93h-21v-12h56.72v12Z" transform="translate(-774.29 -418.32)"/><path fill="#f79413" d="M957.51,833.51a58.47,58.47,0,0,1-9.87,3,48.53,48.53,0,0,1-9.93,1,40.76,40.76,0,0,1-14.62-2.43,27.52,27.52,0,0,1-10.72-7.24A31.65,31.65,0,0,1,905.75,816a61.58,61.58,0,0,1,.21-33.75,35.76,35.76,0,0,1,7-12.71,30,30,0,0,1,11.1-7.91,37.8,37.8,0,0,1,14.68-2.72q2.64,0,5,.12t4.54.44q2.23.32,4.51.85t4.75,1.35v14.3a45.56,45.56,0,0,0-9.49-3.34,38.36,38.36,0,0,0-8.2-1,20.38,20.38,0,0,0-9.32,2,17.13,17.13,0,0,0-6.36,5.51,24.41,24.41,0,0,0-3.66,8.44,46.13,46.13,0,0,0-1.17,10.75,46.69,46.69,0,0,0,1.2,11.1,22.91,22.91,0,0,0,3.72,8.29,16.27,16.27,0,0,0,6.45,5.19,22.32,22.32,0,0,0,9.32,1.79,25.17,25.17,0,0,0,4.19-.38q2.26-.38,4.57-1a47.89,47.89,0,0,0,4.57-1.46q2.26-.85,4.19-1.73Z" transform="translate(-774.29 -418.32)"/><path fill="#353030" d="M1073.12,836.5H1054l-23.38-76.58H1047L1059.93,806l4.16,15.12,4.34-16,12.83-45.23h15.35Z" transform="translate(-774.29 -418.32)"/><path fill="#353030" d="M1146.42,836.5l-4.22-15.12h-26.72l-4.34,15.12h-14.3l22.68-76.58h20.16l22.68,76.58ZM1129,774l-10.08,35.63h20Z" transform="translate(-774.29 -418.32)"/><path fill="#353030" d="M1174.13,836.5V759.92h14.65v64.22h32.34V836.5Z" transform="translate(-774.29 -418.32)"/><path fill="#353030" d="M1289.45,808.32a38.45,38.45,0,0,1-2,12.86,24.52,24.52,0,0,1-5.62,9.23,23.44,23.44,0,0,1-8.94,5.57,35.17,35.17,0,0,1-11.84,1.88,37.91,37.91,0,0,1-12.66-1.87,21.14,21.14,0,0,1-8.55-5.39,20.81,20.81,0,0,1-4.75-8.55,40.48,40.48,0,0,1-1.46-11.31v-50.8h14.41v49.92a31.35,31.35,0,0,0,.67,6.86,12.26,12.26,0,0,0,2.34,5.07,10.46,10.46,0,0,0,4.19,3.13,16.46,16.46,0,0,0,6.33,1.05,17.51,17.51,0,0,0,6-.91,9.36,9.36,0,0,0,4.1-2.93,13.52,13.52,0,0,0,2.46-5.19,31,31,0,0,0,.82-7.68V759.92h14.41Z" transform="translate(-774.29 -418.32)"/><path fill="#353030" d="M1305.33,836.5V759.92h46.11v12.19H1320v19h30V803h-30v21.27h31.46V836.5Z" transform="translate(-774.29 -418.32)"/><path fill="#f79413" d="M827.05,806.32a16.59,16.59,0,0,0-3.11-5.19,16.28,16.28,0,0,0-4.57-3.57,17.86,17.86,0,0,0-5.48-1.85,15.77,15.77,0,0,0,5-2.75,16.48,16.48,0,0,0,3.52-4,17.53,17.53,0,0,0,2.08-5,23.25,23.25,0,0,0,.67-5.6q0-9.26-6.53-13.83a23.24,23.24,0,0,0-7.94-3.37V748.9h-9V760c-.86,0-1.73-.06-2.64-.06h-6.39v-11h-9v11h-9.32V836.5h9.32v13.83h9V836.5h5c1.38,0,2.7,0,4-.12v14h9V835a27.26,27.26,0,0,0,9.67-4.43q7.85-5.89,7.85-17.61A18.58,18.58,0,0,0,827.05,806.32Zm-18.11-.88a9.22,9.22,0,0,1,3.72,7.79,11.29,11.29,0,0,1-.91,4.51,10.24,10.24,0,0,1-2.67,3.66,12.57,12.57,0,0,1-4.37,2.43,19,19,0,0,1-6.06.88H788.59V802.63h9Q805.23,802.63,808.95,805.45ZM803.21,772a11.14,11.14,0,0,1,4,1.9,7.17,7.17,0,0,1,2.26,3,10.49,10.49,0,0,1,.7,3.93,12.56,12.56,0,0,1-.67,4.16,8.69,8.69,0,0,1-2.23,3.43,10.77,10.77,0,0,1-4,2.34,18.16,18.16,0,0,1-5.95.85h-8.73V771.34h8.73A22.35,22.35,0,0,1,803.21,772Z" transform="translate(-774.29 -418.32)"/></svg>